<svg id="calendar-icon" width="20" height="20" viewBox="0 0 20 20" fill="none" xmlns="http://www.w3.org/2000/svg">
<path fill-rule="evenodd" clip-rule="evenodd" d="M15.8333 2.49999H16.6667C17.5833 2.49999 18.3333 3.24999 18.3333 4.16666V17.5C18.3333 18.4167 17.5833 19.1667 16.6667 19.1667H3.33333C2.41667 19.1667 1.66667 18.4167 1.66667 17.5V4.16666C1.66667 3.24999 2.41667 2.49999 3.33333 2.49999H4.16667V1.66666C4.16667 1.20833 4.54167 0.833328 5 0.833328C5.45833 0.833328 5.83333 1.20833 5.83333 1.66666V2.49999H14.1667V1.66666C14.1667 1.20833 14.5417 0.833328 15 0.833328C15.4583 0.833328 15.8333 1.20833 15.8333 1.66666V2.49999ZM4.16667 17.5H15.8333C16.2917 17.5 16.6667 17.125 16.6667 16.6667V6.66666H3.33333V16.6667C3.33333 17.125 3.70833 17.5 4.16667 17.5Z" fill="#3D3C3C"/>
</svg>
