<svg width="31" height="31" viewBox="0 0 31 31" fill="none" xmlns="http://www.w3.org/2000/svg">
<path d="M2.519 30.1849C3.29081 26.9269 4.18417 24.215 5.26469 21.7907C5.25699 21.789 5.25375 21.789 5.24753 21.783C5.1839 21.7572 4.32709 21.4616 4.24581 21.4296C3.97413 21.3073 3.59605 20.6453 3.95846 19.4089C4.59331 17.2449 5.56744 14.7968 6.44514 13.0123C6.42376 13.0009 5.6803 12.7675 5.27762 12.6158C4.648 12.3655 4.3686 11.2318 4.62388 10.4314C5.13395 8.82964 7.59725 3.58212 9.8376 0H3.1347C1.41013 0 0 1.40665 0 3.13519V27.1638C0 28.6656 1.08228 29.947 2.51031 30.2391C2.51205 30.2192 2.51403 30.1973 2.519 30.1849Z" fill="#BB2025"/>
<path d="M20.8408 0C20.7863 0.0534422 20.7282 0.107133 20.6688 0.163309C19.1689 1.51005 15.6492 5.29773 15.6092 5.33626C15.6492 5.35416 17.1992 5.84533 17.2852 5.88087C18.4734 6.31065 18.2922 7.22612 17.5771 7.99271C13.2905 12.6268 11.6738 14.7277 11.6527 14.759C11.694 14.7664 13.1819 15.273 13.2639 15.3041C13.7978 15.494 14.026 16.0426 13.1212 16.7304C12.0676 17.5295 11.117 18.2896 9.79066 19.5061C7.43722 21.6833 4.25705 25.1593 2.60109 30.1444C2.58717 30.1846 2.57226 30.2159 2.55908 30.2493C2.74775 30.2701 2.93814 30.2982 3.13476 30.2982H27.1643C28.8887 30.2982 30.2975 28.8781 30.2975 27.1635V0H20.8408Z" fill="#BB2025"/>
</svg>
