<svg id="c-logo" width="217" height="45" viewBox="0 0 217 45" fill="none" xmlns="http://www.w3.org/2000/svg">
<g clip-path="url(#clip0)">
<path d="M22.88 29.7971C22.88 30.4133 22.88 31.6206 22.88 32.2816C22.88 33.0313 22.2397 33.6509 21.4833 33.6509C19.6959 33.6509 8.52969 33.6509 8.52969 33.6509C5.25853 33.6509 2.87427 30.913 2.87427 27.9384V16.1224C2.87427 13.0258 5.37809 10.4218 8.57617 10.4218C8.57617 10.4218 20.0406 10.4218 21.5228 10.4218C22.3379 10.4218 22.8798 11.0954 22.8798 11.7797C22.8798 12.4799 22.8798 13.5848 22.8798 14.2631C22.8798 14.9532 22.3394 15.6133 21.5223 15.6133C19.8229 15.6133 10.3688 15.6133 10.3688 15.6133C9.63284 15.6133 9.00868 16.1913 9.00868 16.9733C9.00868 16.9733 9.00868 26.3229 9.00868 27.0952C9.00868 27.8476 9.62786 28.4489 10.3688 28.4489C10.3688 28.4489 19.539 28.4489 21.4831 28.4489C22.2728 28.4492 22.88 29.0867 22.88 29.7971Z" fill="#190F10"/>
<path d="M43.6245 10.422C43.6245 10.422 30.135 10.422 28.6197 10.422C27.7955 10.422 27.26 11.0844 27.26 11.7799C27.26 12.4252 27.26 13.6228 27.26 14.2634C27.26 14.9728 27.8332 15.6136 28.6197 15.6136C30.5247 15.6136 41.8381 15.6136 41.8381 15.6136C42.6506 15.6136 43.1962 16.2909 43.1962 16.9708C43.1962 17.3543 43.1962 18.616 43.1962 18.616H31.9359C28.9826 18.616 26.2305 20.9275 26.2305 24.3197V27.9381C26.2305 31.0798 28.7425 33.6507 31.9359 33.6507H49.3269V16.1224C49.3269 13.2084 46.9936 10.422 43.6245 10.422ZM33.6438 28.4492C32.8449 28.4492 32.2824 27.8006 32.2824 27.0974C32.2824 26.5899 32.2824 25.6214 32.2824 25.1651C32.2824 24.4112 32.8918 23.8139 33.6438 23.8139H43.1962V28.4494H33.6438V28.4492Z" fill="#190F10"/>
<path d="M66.4635 29.7111C66.4635 30.4483 66.4635 31.4732 66.4635 32.2815C66.4635 33.025 65.8878 33.6509 65.0633 33.6509H58.8355C55.5337 33.6509 53.1326 31.0877 53.1326 27.9366C53.1326 25.2555 53.1326 3.24951 53.1326 3.24951H59.397V10.4219C59.397 10.4219 61.9876 10.4219 63.8623 10.4219C64.6393 10.4219 65.2157 11.0516 65.2157 11.7858C65.2157 12.54 65.2157 13.4624 65.2157 14.2633C65.2157 15.0284 64.6052 15.6135 63.8526 15.6135C61.9886 15.6135 59.397 15.6135 59.397 15.6135V26.9905C59.397 27.8277 60.0825 28.3405 60.7479 28.3405C61.474 28.3405 65.1083 28.3405 65.1083 28.3405C65.8404 28.3405 66.4635 28.9373 66.4635 29.7111Z" fill="#190F10"/>
<path d="M86.4712 10.422C86.4712 10.422 72.9864 10.422 71.4671 10.422C70.6426 10.422 70.1119 11.0844 70.1119 11.7799C70.1119 12.4252 70.1119 13.6228 70.1119 14.2634C70.1119 14.9728 70.6826 15.6136 71.4671 15.6136C73.3706 15.6136 84.6852 15.6136 84.6852 15.6136C85.4961 15.6136 86.0444 16.2909 86.0444 16.9708C86.0444 17.3543 86.0444 18.616 86.0444 18.616H74.7815C71.8285 18.616 69.0781 20.9275 69.0781 24.3197V27.9381C69.0781 31.0798 71.5904 33.6507 74.7815 33.6507H92.1773V16.1224C92.1776 13.2084 89.8448 10.422 86.4712 10.422ZM76.4904 28.4492C75.6903 28.4492 75.135 27.8006 75.135 27.0974C75.135 26.5899 75.135 25.6214 75.135 25.1651C75.135 24.4112 75.7375 23.8139 76.4904 23.8139H86.0446V28.4494H76.4904V28.4492Z" fill="#190F10"/>
<path d="M102.531 3.24951H96.4429V33.6509H102.531V3.24951Z" fill="#190F10"/>
<path d="M129.469 11.7145C129.469 12.3332 129.469 36.2902 129.469 36.2902C129.469 39.3319 127.099 42.0026 123.759 42.0026C123.759 42.0026 110.126 42.0026 108.667 42.0026C107.913 42.0026 107.308 41.3859 107.308 40.6511C107.308 40.0085 107.308 38.8574 107.308 38.1893C107.308 37.5129 107.874 36.8408 108.667 36.8408C110.267 36.8408 121.601 36.8408 121.601 36.8408C122.364 36.8408 122.952 36.2122 122.952 35.4824V33.5759H111.904C108.739 33.5759 106.198 31.0822 106.198 27.8767C106.198 27.8767 106.198 12.369 106.198 11.7143C106.198 10.9877 106.773 10.3613 107.552 10.3613C109.164 10.3613 109.376 10.3613 110.968 10.3613C111.809 10.3613 112.327 11.0693 112.327 11.7143C112.327 12.2967 112.327 27.0542 112.327 27.0542C112.327 27.7536 112.89 28.4076 113.683 28.4076H123.03C123.03 28.4076 123.03 12.3104 123.03 11.7101C123.03 11.0228 123.574 10.3613 124.383 10.3613C125.967 10.3613 126.354 10.3613 128.11 10.3613C128.965 10.3618 129.469 11.0593 129.469 11.7145Z" fill="#190F10"/>
<path d="M156.902 27.9381C156.902 30.7618 154.665 33.6507 151.193 33.6507C151.193 33.6507 136.225 33.6507 134.448 33.6507C133.616 33.6507 133.096 32.9542 133.096 32.2813C133.096 31.6524 133.096 30.4949 133.096 29.7969C133.096 29.1245 133.65 28.4489 134.448 28.4489C135.934 28.4489 149.826 28.4489 149.826 28.4489C150.595 28.4489 151.182 27.8312 151.182 27.0984C151.182 26.614 151.182 25.6751 151.182 25.226C151.182 24.4586 150.549 23.8767 149.826 23.8767H138.799C135.521 23.8767 133.096 21.1815 133.096 18.1631V16.064C133.096 13.1353 135.443 10.3613 138.799 10.3613C138.799 10.3613 154.086 10.3613 155.547 10.3613C156.362 10.3613 156.903 11.029 156.903 11.7145C156.903 12.37 156.903 13.5614 156.903 14.1972C156.903 14.882 156.364 15.5547 155.547 15.5547C154.21 15.5547 140.441 15.5547 140.441 15.5547C139.672 15.5547 139.084 16.1622 139.084 16.9163C139.084 16.9688 139.084 17.1773 139.084 17.322C139.084 18.059 139.677 18.6759 140.441 18.6759H151.193C154.57 18.6759 156.903 21.4102 156.903 24.3823V27.9381H156.902Z" fill="#190F10"/>
<path d="M177.871 29.7111C177.871 30.4483 177.871 31.4732 177.871 32.2815C177.871 33.025 177.296 33.6509 176.468 33.6509H166.211C162.907 33.6509 160.504 31.0877 160.504 27.9366C160.504 25.2555 160.504 3.24951 160.504 3.24951H166.768V10.4219C166.768 10.4219 169.363 10.4219 171.236 10.4219C172.011 10.4219 172.59 11.0516 172.59 11.7858C172.59 12.54 172.59 13.4624 172.59 14.2633C172.59 15.0284 171.981 15.6135 171.225 15.6135C169.365 15.6135 166.768 15.6135 166.768 15.6135V26.9905C166.768 27.8277 167.456 28.3405 168.125 28.3405C168.849 28.3405 176.513 28.3405 176.513 28.3405C177.247 28.3405 177.871 28.9373 177.871 29.7111Z" fill="#190F10"/>
<path d="M186.477 33.4344C187.248 30.1764 188.142 27.4645 189.222 25.0402C189.215 25.0385 189.211 25.0385 189.205 25.0325C189.141 25.0067 188.285 24.7111 188.203 24.6791C187.932 24.5568 187.554 23.8948 187.916 22.6585C188.551 20.4944 189.525 18.0463 190.403 16.2618C190.381 16.2504 189.638 16.017 189.235 15.8653C188.606 15.615 188.326 14.4813 188.581 13.6809C189.091 12.0792 191.555 6.83163 193.795 3.24951H187.092C185.368 3.24951 183.958 4.65616 183.958 6.3847V30.4133C183.958 31.9151 185.04 33.1965 186.468 33.4886C186.47 33.4687 186.472 33.4468 186.477 33.4344Z" fill="#BB2025"/>
<path d="M204.798 3.24951C204.744 3.30295 204.686 3.35664 204.626 3.41282C203.126 4.75956 199.607 8.54724 199.567 8.58577C199.607 8.60367 201.157 9.09484 201.243 9.13039C202.431 9.56016 202.25 10.4756 201.535 11.2422C197.248 15.8763 195.631 17.9772 195.61 18.0085C195.651 18.016 197.139 18.5225 197.221 18.5536C197.755 18.7435 197.984 19.2921 197.079 19.9799C196.025 20.779 195.075 21.5392 193.748 22.7556C191.395 24.9329 188.215 28.4088 186.559 33.3939C186.545 33.4341 186.53 33.4655 186.517 33.4988C186.705 33.5196 186.896 33.5477 187.092 33.5477H211.122C212.846 33.5477 214.255 32.1277 214.255 30.413V3.24951H204.798Z" fill="#BB2025"/>
</g>
<defs>
<clipPath id="clip0">
<rect width="217" height="44.9908" fill="white"/>
</clipPath>
</defs>
</svg>
