<svg width="24" height="24" viewBox="0 0 24 24" fill="none" xmlns="http://www.w3.org/2000/svg">
<path fill-rule="evenodd" clip-rule="evenodd" d="M7.99875 7C7.99875 6.45 7.54875 6 6.99875 6C6.44875 6 5.99875 6.45 5.99875 7V17C5.99875 17.55 6.44875 18 6.99875 18C7.54875 18 7.99875 17.55 7.99875 17V7ZM13.8188 12L17.6988 15.89C18.0888 16.27 18.0888 16.91 17.7088 17.29C17.3188 17.68 16.6888 17.68 16.2988 17.29L11.7088 12.7C11.3188 12.31 11.3188 11.68 11.7088 11.29L16.2988 6.7C16.4856 6.51275 16.7392 6.40751 17.0038 6.40751C17.2683 6.40751 17.5219 6.51275 17.7088 6.7C18.0988 7.09 18.0988 7.72 17.7088 8.11L13.8188 12Z" fill="white"/>
</svg>
