<svg width="20" height="20" viewBox="0 0 20 20" fill="none" xmlns="http://www.w3.org/2000/svg">
<path d="M5 1.66666C5.66304 1.66666 6.29893 1.93005 6.76777 2.39889C7.23661 2.86773 7.5 3.50362 7.5 4.16666C7.5 5.23332 6.825 6.14999 5.88333 6.50832C5.95833 6.89166 6.15833 7.35832 6.66667 8.02499C7.5 9.09999 9.16667 10.6917 10 11.8083C10.8333 10.6917 12.5 9.09999 13.3333 8.02499C13.8417 7.35832 14.0417 6.89166 14.1167 6.50832C13.175 6.14999 12.5 5.23332 12.5 4.16666C12.5 3.50362 12.7634 2.86773 13.2322 2.39889C13.7011 1.93005 14.337 1.66666 15 1.66666C15.663 1.66666 16.2989 1.93005 16.7678 2.39889C17.2366 2.86773 17.5 3.50362 17.5 4.16666C17.5 5.26666 16.7833 6.20832 15.7917 6.54166C15.725 6.97499 15.5333 7.49999 15 8.19166C14.1667 9.30832 12.5 10.9 11.6667 11.9833C11.1583 12.6417 10.9583 13.1083 10.8833 13.4917C11.825 13.85 12.5 14.7667 12.5 15.8333C12.5 16.4964 12.2366 17.1323 11.7678 17.6011C11.2989 18.0699 10.663 18.3333 10 18.3333C9.33696 18.3333 8.70107 18.0699 8.23223 17.6011C7.76339 17.1323 7.5 16.4964 7.5 15.8333C7.5 14.7667 8.175 13.85 9.11667 13.4917C9.04167 13.1083 8.84167 12.6417 8.33333 11.9833C7.5 10.9 5.83333 9.30832 5 8.19166C4.46667 7.49999 4.275 6.97499 4.20833 6.54166C3.21667 6.20832 2.5 5.26666 2.5 4.16666C2.5 3.50362 2.76339 2.86773 3.23223 2.39889C3.70107 1.93005 4.33696 1.66666 5 1.66666V1.66666ZM5 3.33332C4.77899 3.33332 4.56702 3.42112 4.41074 3.5774C4.25446 3.73368 4.16667 3.94564 4.16667 4.16666C4.16667 4.38767 4.25446 4.59963 4.41074 4.75591C4.56702 4.91219 4.77899 4.99999 5 4.99999C5.22101 4.99999 5.43298 4.91219 5.58926 4.75591C5.74554 4.59963 5.83333 4.38767 5.83333 4.16666C5.83333 3.94564 5.74554 3.73368 5.58926 3.5774C5.43298 3.42112 5.22101 3.33332 5 3.33332V3.33332ZM15 3.33332C14.779 3.33332 14.567 3.42112 14.4107 3.5774C14.2545 3.73368 14.1667 3.94564 14.1667 4.16666C14.1667 4.38767 14.2545 4.59963 14.4107 4.75591C14.567 4.91219 14.779 4.99999 15 4.99999C15.221 4.99999 15.433 4.91219 15.5893 4.75591C15.7455 4.59963 15.8333 4.38767 15.8333 4.16666C15.8333 3.94564 15.7455 3.73368 15.5893 3.5774C15.433 3.42112 15.221 3.33332 15 3.33332V3.33332ZM10 15C9.77899 15 9.56702 15.0878 9.41074 15.2441C9.25446 15.4003 9.16667 15.6123 9.16667 15.8333C9.16667 16.0543 9.25446 16.2663 9.41074 16.4226C9.56702 16.5789 9.77899 16.6667 10 16.6667C10.221 16.6667 10.433 16.5789 10.5893 16.4226C10.7455 16.2663 10.8333 16.0543 10.8333 15.8333C10.8333 15.6123 10.7455 15.4003 10.5893 15.2441C10.433 15.0878 10.221 15 10 15Z" fill="#4F4F4F"/>
</svg>
