<svg id="language-icon" width="20" height="20" viewBox="0 0 20 20" fill="none" xmlns="http://www.w3.org/2000/svg">
<path d="M11.6667 1.66667H4.99999C4.07499 1.66667 3.33333 2.41667 3.33333 3.33334V16.6667C3.33333 17.5917 4.07499 18.3333 4.99999 18.3333H15C15.925 18.3333 16.6667 17.5917 16.6667 16.6667V6.66667L11.6667 1.66667ZM15 16.6667H4.99999V3.33334H10.8333V7.50001H15V16.6667ZM7.94999 13.0417L9.69166 14.7833L8.62499 15.8333L5.83333 13.0417L8.62499 10.25L9.69166 11.3L7.94999 13.0417ZM14.1667 13.0417L11.375 15.8333L10.3167 14.7833L12.0583 13.0417L10.3167 11.3L11.375 10.25L14.1667 13.0417Z" fill="#3D3C3C"/>
</svg>
