<svg width="24" height="24" viewBox="0 0 24 24" fill="none" xmlns="http://www.w3.org/2000/svg">
<path fill-rule="evenodd" clip-rule="evenodd" d="M16.0013 17C16.0013 17.55 16.4513 18 17.0013 18C17.5513 18 18.0013 17.55 18.0013 17V7C18.0013 6.45 17.5513 6 17.0013 6C16.4513 6 16.0013 6.45 16.0013 7V17ZM10.1813 12L6.30125 8.11C5.91125 7.73 5.91125 7.09 6.29125 6.71C6.68125 6.32 7.31125 6.32 7.70125 6.71L12.2913 11.3C12.6813 11.69 12.6813 12.32 12.2913 12.71L7.70125 17.3C7.51442 17.4873 7.26077 17.5925 6.99625 17.5925C6.73173 17.5925 6.47808 17.4873 6.29125 17.3C5.90125 16.91 5.90125 16.28 6.29125 15.89L10.1813 12Z" fill="white"/>
</svg>
