<svg width="20" height="24" viewBox="0 0 20 24" fill="none" xmlns="http://www.w3.org/2000/svg">
<path d="M12.5 20C12.721 20 12.933 19.8946 13.0893 19.7071C13.2455 19.5196 13.3333 19.2652 13.3333 19V4H6.66667C6.44566 4 6.2337 4.10536 6.07742 4.29289C5.92114 4.48043 5.83334 4.73478 5.83334 5V16H4.16667V5C4.16667 4.20435 4.43006 3.44129 4.89891 2.87868C5.36775 2.31607 6.00363 2 6.66667 2H15.8333C16.4964 2 17.1323 2.31607 17.6011 2.87868C18.0699 3.44129 18.3333 4.20435 18.3333 5V6H16.6667V5C16.6667 4.73478 16.5789 4.48043 16.4226 4.29289C16.2663 4.10536 16.0544 4 15.8333 4C15.6123 4 15.4004 4.10536 15.2441 4.29289C15.0878 4.48043 15 4.73478 15 5V9V19C15 19.7956 14.7366 20.5587 14.2678 21.1213C13.7989 21.6839 13.163 22 12.5 22H4.16667C3.50363 22 2.86775 21.6839 2.3989 21.1213C1.93006 20.5587 1.66667 19.7956 1.66667 19V18H10.8333C10.8333 18.5304 11.0089 19.0391 11.3215 19.4142C11.6341 19.7893 12.058 20 12.5 20ZM7.50001 6H11.6667V8H7.50001V6ZM7.50001 10H11.6667V12H7.50001V10ZM7.50001 14H11.6667V16H7.50001V14Z" fill="#3D3C3C"/>
</svg>
