<svg width="20" height="20" viewBox="0 0 20 20" fill="none" xmlns="http://www.w3.org/2000/svg">
<path d="M5 2.49999C5.66304 2.49999 6.29893 2.76339 6.76777 3.23223C7.23661 3.70107 7.5 4.33695 7.5 4.99999C7.5 6.09166 6.80833 7.01666 5.83333 7.35833V12.6417C6.80833 12.9833 7.5 13.9083 7.5 15C7.5 15.663 7.23661 16.2989 6.76777 16.7678C6.29893 17.2366 5.66304 17.5 5 17.5C4.33696 17.5 3.70107 17.2366 3.23223 16.7678C2.76339 16.2989 2.5 15.663 2.5 15C2.5 13.9083 3.19167 12.9833 4.16667 12.6417V7.35833C3.19167 7.01666 2.5 6.09166 2.5 4.99999C2.5 4.33695 2.76339 3.70107 3.23223 3.23223C3.70107 2.76339 4.33696 2.49999 5 2.49999V2.49999ZM5 4.16666C4.77899 4.16666 4.56702 4.25446 4.41074 4.41074C4.25446 4.56702 4.16667 4.77898 4.16667 4.99999C4.16667 5.22101 4.25446 5.43297 4.41074 5.58925C4.56702 5.74553 4.77899 5.83333 5 5.83333C5.22101 5.83333 5.43298 5.74553 5.58926 5.58925C5.74554 5.43297 5.83333 5.22101 5.83333 4.99999C5.83333 4.77898 5.74554 4.56702 5.58926 4.41074C5.43298 4.25446 5.22101 4.16666 5 4.16666ZM5 14.1667C4.77899 14.1667 4.56702 14.2545 4.41074 14.4107C4.25446 14.567 4.16667 14.779 4.16667 15C4.16667 15.221 4.25446 15.433 4.41074 15.5893C4.56702 15.7455 4.77899 15.8333 5 15.8333C5.22101 15.8333 5.43298 15.7455 5.58926 15.5893C5.74554 15.433 5.83333 15.221 5.83333 15C5.83333 14.779 5.74554 14.567 5.58926 14.4107C5.43298 14.2545 5.22101 14.1667 5 14.1667ZM17.5 15C17.5 15.663 17.2366 16.2989 16.7678 16.7678C16.2989 17.2366 15.663 17.5 15 17.5C14.337 17.5 13.7011 17.2366 13.2322 16.7678C12.7634 16.2989 12.5 15.663 12.5 15C12.5 13.9083 13.1917 12.9833 14.1667 12.6417V5.83333H12.5V8.54166L8.95833 4.99999L12.5 1.45833V4.16666H14.1667C14.6087 4.16666 15.0326 4.34226 15.3452 4.65482C15.6577 4.96738 15.8333 5.3913 15.8333 5.83333V12.6417C16.8083 12.9833 17.5 13.9083 17.5 15ZM15 14.1667C14.779 14.1667 14.567 14.2545 14.4107 14.4107C14.2545 14.567 14.1667 14.779 14.1667 15C14.1667 15.221 14.2545 15.433 14.4107 15.5893C14.567 15.7455 14.779 15.8333 15 15.8333C15.221 15.8333 15.433 15.7455 15.5893 15.5893C15.7455 15.433 15.8333 15.221 15.8333 15C15.8333 14.779 15.7455 14.567 15.5893 14.4107C15.433 14.2545 15.221 14.1667 15 14.1667Z" fill="#3D3C3C"/>
</svg>
