<svg id="star-icon" width="20" height="20" viewBox="0 0 20 20" fill="none" xmlns="http://www.w3.org/2000/svg">
<path fill-rule="evenodd" clip-rule="evenodd" d="M12.3404 7.39549L16.3738 7.74549C17.1071 7.80382 17.3988 8.72049 16.8404 9.20382L13.7821 11.8538L14.6988 15.7955C14.8654 16.5122 14.0904 17.0788 13.4571 16.6955L9.99878 14.6038L6.54045 16.6872C5.90711 17.0705 5.13211 16.5038 5.29878 15.7872L6.21545 11.8538L3.15711 9.20382C2.59878 8.72049 2.89878 7.80382 3.63211 7.74549L7.65711 7.40382L9.23211 3.68716C9.51545 3.01216 10.4821 3.01216 10.7654 3.68716L12.3404 7.39549ZM6.86545 14.9372L9.99878 13.0455L13.1405 14.9455L12.3071 11.3788L15.0738 8.97882L11.4238 8.66216L9.99878 5.29549L8.58212 8.65382L4.93212 8.97049L7.69878 11.3705L6.86545 14.9372Z" fill="#3D3C3C"/>
</svg>
